<svg width="125" height="168" fill="none" 
  xmlns="http://www.w3.org/2000/svg">
  <path d="M75.44 13.18v3.78h2.12v-3.78h3.78v-2.12h-3.78V7.28h-2.12v3.78h-3.78v2.12h3.78zm-70 42v3.78h2.12v-3.78h3.78v-2.12H7.56v-3.78H5.44v3.78H1.66v2.12h3.78zm18.712-40.836v3.024h1.696v-3.024h3.024v-1.696h-3.024V9.624h-1.696v3.024h-3.024v1.696h3.024zm96.606 37.582v2.646h1.484v-2.646h2.646v-1.484h-2.646v-2.646h-1.484v2.646h-2.646v1.484h2.646zm-14-10v2.646h1.484v-2.646h2.646v-1.484h-2.646v-2.646h-1.484v2.646h-2.646v1.484h2.646z" fill="#D5DADE"></path>
  <circle cx="55.5" cy="24.5" r="5.5" stroke="#DADEE2" stroke-width="2"></circle>
  <circle cx="98" cy="21" r="7" stroke="#DADEE2" stroke-width="2"></circle>
  <circle cx="21" cy="36" r="4" stroke="#DADEE2" stroke-width="2"></circle>
  <path d="M106.836 54.714h-74.43v28.443h74.43V54.714z" fill="#DDE2E8"></path>
  <path d="M106.836 54.714l5.419 19.002 6.143 9.562h-15.055V54.714h3.493zm-74.551 0l-5.42 19.002-6.263 9.562h15.175V54.714h-3.492z" fill="#CAD2D9"></path>
  <path d="M119 163.764V84.367c0-2.663-2.288-2.3-2.288-2.3H22.288S20 81.704 20 84.367v79.518S19.518 168 26.744 168h85.511c7.227 0 6.745-4.236 6.745-4.236zm-69.734-48.776c.482-2.542 2.65-4.478 5.3-4.478s4.817 1.936 5.299 4.478H49.266zm29.267 15.371c-.241.605-.843.968-1.445.847-9.154-2.783-14.212 3.631-14.212 3.631-.241.363-.602.484-.964.484-.24 0-.481-.121-.722-.242-.482-.363-.602-1.21-.241-1.694 0-.121 6.022-7.746 16.861-4.478.482.121.843.847.723 1.452zm.843-15.371c.482-2.542 2.65-4.478 5.3-4.478 2.649 0 4.817 1.936 5.298 4.478H79.376z" fill="#E7EBED"></path>
  <path d="M46.858 95.502a2.656 2.656 0 0 0 2.65-2.663 2.656 2.656 0 0 0-2.65-2.662 2.656 2.656 0 0 0-2.65 2.662 2.656 2.656 0 0 0 2.65 2.663zm45.043 0a2.656 2.656 0 0 0 2.65-2.663 2.656 2.656 0 0 0-2.65-2.662 2.656 2.656 0 0 0-2.65 2.662 2.656 2.656 0 0 0 2.65 2.663z" fill="#CAD2D9"></path>
  <path d="M69.5 46c-12.887 0-23.485 10.288-23.485 22.996v24.69h1.806v-24.69c0-11.619 9.756-21.18 21.679-21.18 11.923 0 21.679 9.44 21.679 21.18v24.691h1.806V68.995C92.986 56.288 82.388 46 69.5 46z" fill="#6A7675"></path>
</svg>